<?xml version="1.0" encoding="UTF-8" standalone="no"?>
<svg width="439px" height="162px" viewBox="0 0 439 162" version="1.1" xmlns="http://www.w3.org/2000/svg" xmlns:xlink="http://www.w3.org/1999/xlink" xmlns:sketch="http://www.bohemiancoding.com/sketch/ns">
    <!-- Generator: Sketch 3.3.3 (12072) - http://www.bohemiancoding.com/sketch -->
    <title>logo</title>
    <desc>Created with Sketch.</desc>
    <defs>
        <path id="path-1" d="M0,2.43 L1289.43,0.43 L1289.43,865 L0,867 L0,2.43"></path>
    </defs>
    <g id="Page-1" stroke="none" stroke-width="1" fill="none" fill-rule="evenodd" sketch:type="MSPage">
        <g id="Logo-e-loue-copie-copie" sketch:type="MSLayerGroup" transform="translate(-342.000000, -294.000000)">
            <mask id="mask-2" sketch:name="Clip 2" fill="white">
                <use xlink:href="#path-1"></use>
            </mask>
            <g id="Clip-2"></g>
            <path d="M394.254,303.331 C365.569,303.331 342.314,326.583 342.314,355.27 C342.314,396.609 381.276,416.956 393.694,454.238 C393.699,454.253 393.703,454.271 393.71,454.286 C393.802,454.497 394.011,454.645 394.254,454.645 C394.498,454.645 394.707,454.497 394.799,454.286 C394.804,454.271 394.81,454.253 394.814,454.238 C407.232,416.956 446.194,396.609 446.194,355.27 C446.194,326.583 422.939,303.331 394.254,303.331" id="Fill-5" fill="#DD622A" sketch:type="MSShapeGroup" mask="url(#mask-2)"></path>
            <path d="M455.856,342.481 L492.955,342.481 L492.955,364.004 L455.856,364.004 L455.856,342.481 Z" id="Fill-6" fill="#5D5F5D" sketch:type="MSShapeGroup" mask="url(#mask-2)"></path>
            <path d="M505.668,293.631 L527.581,293.631 L527.581,391.333 L505.668,391.333 L505.668,293.631 Z" id="Fill-7" fill="#5D5F5D" sketch:type="MSShapeGroup" mask="url(#mask-2)"></path>
            <path d="M559.396,354.76 C559.396,365.321 567.456,373.11 576.957,373.11 C586.466,373.11 594.516,365.321 594.516,354.631 C594.516,343.934 586.466,336.147 576.957,336.147 C567.456,336.147 559.396,343.934 559.396,354.631 L559.396,354.76 L559.396,354.76 Z M537.484,354.494 C537.484,336.672 550.29,315.683 576.957,315.683 C603.628,315.683 616.44,336.672 616.44,354.631 C616.44,372.583 603.628,393.577 576.957,393.577 C550.29,393.577 537.484,372.583 537.484,354.631 L537.484,354.494 L537.484,354.494 Z" id="Fill-8" fill="#5D5F5D" sketch:type="MSShapeGroup" mask="url(#mask-2)"></path>
            <path d="M693.881,391.333 L673.42,391.333 L673.42,383.542 C670.91,387.11 666.288,393.844 653.083,393.844 C628.265,393.844 625.758,373.774 625.758,363.873 L625.758,318.059 L647.672,318.059 L647.672,358.061 C647.672,366.118 649.389,373.245 659.295,373.245 C670.249,373.245 671.968,365.455 671.968,357.93 L671.968,318.059 L693.881,318.059 L693.881,391.333" id="Fill-9" fill="#5D5F5D" sketch:type="MSShapeGroup" mask="url(#mask-2)"></path>
            <path d="M758.49,345.65 C757.964,342.217 753.471,334.033 742.119,334.033 C730.766,334.033 726.279,342.217 725.744,345.65 L758.49,345.65 L758.49,345.65 Z M725.481,362.284 C726.406,370.075 733.803,375.224 742.38,375.224 C749.382,375.224 753.079,372.186 755.717,368.36 L778.166,368.36 C774.594,376.545 769.451,382.881 763.242,387.11 C757.167,391.465 749.907,393.711 742.38,393.711 C721.392,393.711 703.57,376.678 703.57,354.894 C703.57,334.433 719.672,315.547 741.99,315.547 C753.208,315.547 762.844,319.908 769.715,327.168 C778.955,337.07 781.725,348.82 780.014,362.284 L725.481,362.284 L725.481,362.284 Z" id="Fill-10" fill="#5D5F5D" sketch:type="MSShapeGroup" mask="url(#mask-2)"></path>
            <path d="M410.364,345.65 C409.835,342.217 405.344,334.033 393.989,334.033 C382.638,334.033 378.148,342.217 377.616,345.65 L410.364,345.65 L410.364,345.65 Z M377.352,362.284 C378.276,370.075 385.676,375.224 394.252,375.224 C401.252,375.224 404.951,372.186 407.588,368.36 L430.033,368.36 C426.467,376.545 421.323,382.881 415.114,387.11 C409.041,391.465 401.777,393.711 394.252,393.711 C373.264,393.711 355.438,376.678 355.438,354.894 C355.438,334.433 371.544,315.547 393.861,315.547 C405.078,315.547 414.715,319.908 421.586,327.168 C430.824,337.07 433.6,348.82 431.886,362.284 L377.352,362.284 L377.352,362.284 Z" id="Fill-11" fill="#FFFFFF" sketch:type="MSShapeGroup" mask="url(#mask-2)"></path>
            <path d="M467.756,428.277 C467.453,426.004 466.051,424.64 463.968,424.64 C461.886,424.64 460.636,425.815 460.295,428.277 L467.756,428.277 L467.756,428.277 Z M473.398,435.245 C471.543,438.123 468.513,439.638 464.612,439.638 C458.402,439.638 454.501,436.154 454.501,430.587 C454.501,424.981 458.553,420.891 464.158,420.891 C469.536,420.891 473.852,425.019 473.398,431.458 L460.295,431.458 C460.333,433.503 461.431,435.926 464.687,435.926 C466.203,435.926 467.187,435.434 468.853,433.843 L473.398,435.245 L473.398,435.245 Z" id="Fill-12" fill="#5D5F5D" sketch:type="MSShapeGroup" mask="url(#mask-2)"></path>
            <path d="M474.402,421.308 L476.674,421.308 L476.674,418.505 L482.469,414.415 L482.469,421.308 L485.687,421.308 L485.687,425.436 L482.469,425.436 L482.469,433.2 C482.469,434.753 482.734,435.056 483.945,435.056 C484.551,435.056 484.893,434.98 485.687,434.715 L485.687,438.577 C484.249,439.183 482.81,439.487 481.408,439.487 C479.136,439.487 476.674,438.389 476.674,435.207 L476.674,425.436 L474.402,425.436 L474.402,421.308" id="Fill-13" fill="#5D5F5D" sketch:type="MSShapeGroup" mask="url(#mask-2)"></path>
            <path d="M502.923,439.221 C498.568,438.2 495.879,434.866 495.879,430.245 C495.879,424.944 499.704,421.042 504.93,421.042 C506.9,421.042 508.49,421.573 510.346,422.784 L510.346,421.308 L514.284,421.308 L514.284,428.579 L510.346,428.579 C509.436,426.611 507.922,425.587 505.953,425.587 C503.377,425.587 501.749,427.406 501.749,430.207 C501.749,433.314 503.264,435.206 505.801,435.206 C507.581,435.206 509.323,434.109 510.346,432.252 L514.777,434.223 C512.997,438.009 510.231,439.639 505.763,439.639 L505.687,439.904 C507.884,440.168 509.21,441.455 509.21,443.159 C509.21,446.683 505.763,447.288 500.347,447.024 L500.347,445.129 C502.128,445.129 504.248,445.016 504.248,443.653 C504.248,442.858 503.529,442.441 502.014,442.326 L502.923,439.221" id="Fill-14" fill="#5D5F5D" sketch:type="MSShapeGroup" mask="url(#mask-2)"></path>
            <path d="M524.645,431.306 C523.131,431.306 522.032,432.253 522.032,433.541 C522.032,434.904 523.055,435.927 524.381,435.927 C525.517,435.927 526.426,435.434 527.94,434.071 L527.94,432.594 C526.539,431.685 525.517,431.306 524.645,431.306 M536.613,439.222 L527.94,439.222 L527.94,437.82 C526.273,438.994 524.834,439.487 523.093,439.487 C519.344,439.487 516.541,437.1 516.541,433.882 C516.541,430.397 519.608,427.86 523.889,427.86 C525.517,427.86 526.5,428.163 527.94,428.655 L527.94,427.67 C527.94,425.815 526.577,424.527 524.531,424.527 C523.206,424.527 522.298,424.944 521.274,425.929 L516.654,425.133 C518.094,422.217 520.82,420.891 525.327,420.891 C531.197,420.891 533.734,422.974 533.734,427.746 L533.734,435.094 L536.613,435.094 L536.613,439.222" id="Fill-15" fill="#5D5F5D" sketch:type="MSShapeGroup" mask="url(#mask-2)"></path>
            <path d="M546.426,435.094 L549.191,435.094 L549.191,417.635 L546.426,417.635 L546.426,413.506 L554.985,413.506 L554.985,435.094 L557.561,435.094 L557.561,439.222 L546.426,439.222 L546.426,435.094" id="Fill-16" fill="#5D5F5D" sketch:type="MSShapeGroup" mask="url(#mask-2)"></path>
            <path d="M571.904,428.277 C571.602,426.004 570.2,424.64 568.117,424.64 C566.034,424.64 564.785,425.815 564.443,428.277 L571.904,428.277 L571.904,428.277 Z M577.548,435.245 C575.691,438.123 572.662,439.638 568.761,439.638 C562.551,439.638 558.649,436.154 558.649,430.587 C558.649,424.981 562.702,420.891 568.307,420.891 C573.685,420.891 578.002,425.019 577.548,431.458 L564.443,431.458 C564.481,433.503 565.58,435.926 568.837,435.926 C570.352,435.926 571.337,435.434 573.003,433.843 L577.548,435.245 L577.548,435.245 Z" id="Fill-17" fill="#5D5F5D" sketch:type="MSShapeGroup" mask="url(#mask-2)"></path>
            <path d="M600.232,439.221 L591.674,439.221 L591.674,437.706 C589.932,438.918 588.266,439.487 586.56,439.487 C583.152,439.487 581.069,437.365 581.069,433.919 L581.069,425.436 L578.456,425.436 L578.456,421.308 L586.863,421.308 L586.863,432.481 C586.863,434.223 587.28,434.79 588.606,434.79 C589.515,434.79 590.537,434.335 591.674,433.502 L591.674,425.436 L589.287,425.436 L589.287,421.308 L597.468,421.308 L597.468,435.093 L600.232,435.093 L600.232,439.221" id="Fill-18" fill="#5D5F5D" sketch:type="MSShapeGroup" mask="url(#mask-2)"></path>
            <path d="M614.465,439.221 L601.853,439.221 L601.853,435.093 L605.186,435.093 L605.186,425.436 L602.156,425.436 L602.156,421.308 L610.375,421.308 L610.375,425.853 L610.451,425.853 C611.511,422.746 613.746,421.042 616.7,421.042 L617.533,421.042 L617.533,426.458 L616.851,426.458 C612.23,426.458 610.98,429.565 610.98,433.2 L610.98,435.093 L614.465,435.093 L614.465,439.221" id="Fill-19" fill="#5D5F5D" sketch:type="MSShapeGroup" mask="url(#mask-2)"></path>
            <path d="M639.389,439.221 L626.777,439.221 L626.777,435.093 L630.11,435.093 L630.11,425.436 L627.081,425.436 L627.081,421.308 L635.299,421.308 L635.299,425.853 L635.375,425.853 C636.435,422.746 638.67,421.042 641.624,421.042 L642.457,421.042 L642.457,426.458 L641.774,426.458 C637.154,426.458 635.904,429.565 635.904,433.2 L635.904,435.093 L639.389,435.093 L639.389,439.221" id="Fill-20" fill="#5D5F5D" sketch:type="MSShapeGroup" mask="url(#mask-2)"></path>
            <path d="M651.81,431.306 C650.295,431.306 649.196,432.253 649.196,433.541 C649.196,434.904 650.219,435.927 651.545,435.927 C652.681,435.927 653.59,435.434 655.104,434.071 L655.104,432.594 C653.703,431.685 652.681,431.306 651.81,431.306 M663.777,439.222 L655.104,439.222 L655.104,437.82 C653.438,438.994 651.998,439.487 650.257,439.487 C646.508,439.487 643.705,437.1 643.705,433.882 C643.705,430.397 646.773,427.86 651.053,427.86 C652.681,427.86 653.664,428.163 655.104,428.655 L655.104,427.67 C655.104,425.815 653.741,424.527 651.695,424.527 C650.37,424.527 649.462,424.944 648.438,425.929 L643.818,425.133 C645.258,422.217 647.984,420.891 652.491,420.891 C658.361,420.891 660.898,422.974 660.898,427.746 L660.898,435.094 L663.777,435.094 L663.777,439.222" id="Fill-21" fill="#5D5F5D" sketch:type="MSShapeGroup" mask="url(#mask-2)"></path>
            <path d="M675.835,425.74 C673.639,425.74 672.389,427.481 672.389,430.435 C672.389,433.351 673.752,435.207 675.911,435.207 C678.068,435.207 679.357,433.389 679.357,430.359 C679.357,427.481 678.032,425.74 675.835,425.74 M675.835,447.25 L663.602,447.25 L663.602,443.122 L666.632,443.122 L666.632,425.436 L663.602,425.436 L663.602,421.308 L672.427,421.308 L672.427,423.58 C674.017,421.8 675.607,421.043 677.615,421.043 C681.933,421.043 685.227,425.057 685.227,430.359 C685.227,435.813 682.046,439.638 677.54,439.638 C675.57,439.638 674.055,438.994 672.427,437.405 L672.427,443.122 L675.835,443.122 L675.835,447.25" id="Fill-22" fill="#5D5F5D" sketch:type="MSShapeGroup" mask="url(#mask-2)"></path>
            <path d="M698.482,425.74 C696.286,425.74 695.036,427.481 695.036,430.435 C695.036,433.351 696.399,435.207 698.559,435.207 C700.717,435.207 702.004,433.389 702.004,430.359 C702.004,427.481 700.68,425.74 698.482,425.74 M698.482,447.25 L686.25,447.25 L686.25,443.122 L689.279,443.122 L689.279,425.436 L686.25,425.436 L686.25,421.308 L695.074,421.308 L695.074,423.58 C696.664,421.8 698.256,421.043 700.263,421.043 C704.58,421.043 707.875,425.057 707.875,430.359 C707.875,435.813 704.693,439.638 700.188,439.638 C698.218,439.638 696.702,438.994 695.074,437.405 L695.074,443.122 L698.482,443.122 L698.482,447.25" id="Fill-23" fill="#5D5F5D" sketch:type="MSShapeGroup" mask="url(#mask-2)"></path>
            <path d="M719.104,425.323 C716.832,425.323 715.582,427.141 715.582,430.36 C715.582,433.389 716.907,435.206 719.104,435.206 C721.376,435.206 722.664,433.389 722.664,430.245 C722.664,427.141 721.376,425.323 719.104,425.323 M719.104,439.638 C713.802,439.638 709.711,436.192 709.711,430.245 C709.711,423.958 714.256,420.892 719.104,420.892 C724.33,420.892 728.534,424.224 728.534,430.245 C728.534,435.889 724.709,439.638 719.104,439.638" id="Fill-24" fill="#5D5F5D" sketch:type="MSShapeGroup" mask="url(#mask-2)"></path>
            <path d="M742.402,439.221 L729.791,439.221 L729.791,435.093 L733.124,435.093 L733.124,425.436 L730.094,425.436 L730.094,421.308 L738.313,421.308 L738.313,425.853 L738.389,425.853 C739.448,422.746 741.684,421.042 744.638,421.042 L745.471,421.042 L745.471,426.458 L744.788,426.458 C740.168,426.458 738.918,429.565 738.918,433.2 L738.918,435.093 L742.402,435.093 L742.402,439.221" id="Fill-25" fill="#5D5F5D" sketch:type="MSShapeGroup" mask="url(#mask-2)"></path>
            <path d="M746.4,421.308 L748.673,421.308 L748.673,418.505 L754.468,414.415 L754.468,421.308 L757.686,421.308 L757.686,425.436 L754.468,425.436 L754.468,433.2 C754.468,434.753 754.732,435.056 755.943,435.056 C756.55,435.056 756.892,434.98 757.686,434.715 L757.686,438.577 C756.248,439.183 754.809,439.487 753.407,439.487 C751.135,439.487 748.673,438.389 748.673,435.207 L748.673,425.436 L746.4,425.436 L746.4,421.308" id="Fill-26" fill="#5D5F5D" sketch:type="MSShapeGroup" mask="url(#mask-2)"></path>
            <path d="M772.262,428.277 C771.959,426.004 770.557,424.64 768.474,424.64 C766.392,424.64 765.142,425.815 764.801,428.277 L772.262,428.277 L772.262,428.277 Z M777.904,435.245 C776.049,438.123 773.019,439.638 769.117,439.638 C762.908,439.638 759.007,436.154 759.007,430.587 C759.007,424.981 763.059,420.891 768.664,420.891 C774.042,420.891 778.358,425.019 777.904,431.458 L764.801,431.458 C764.839,433.503 765.936,435.926 769.193,435.926 C770.709,435.926 771.693,435.434 773.359,433.843 L777.904,435.245 L777.904,435.245 Z" id="Fill-27" fill="#5D5F5D" sketch:type="MSShapeGroup" mask="url(#mask-2)"></path>
        </g>
    </g>
</svg>